# xmcd CD database file
#
# Track frame offsets:
#	150
#	18927
#	38502
#	56086
#	77806
#	91764
#
# Disc length: 1404 seconds
#
# Revision: 0
# Processed by: cddbd v1.5PL3 Copyright (c) Steve Scherf et al.
# Submitted via: CDex 1.50beta10
#
DISCID=39057a06
DTITLE=Regine Dobberschütz - Live at the jazzkeller
DYEAR=1900
DGENRE=Jazz
TTITLE0=What Are You Doing The Rest Of Your Life
TTITLE1=There´s No Such Thing As Love
TTITLE2=A Song For You
TTITLE3=Lucky Me
TTITLE4=Solo Sunny
TTITLE5=Come Between Delights
EXTD=
EXTT0=
EXTT1=
EXTT2=
EXTT3=
EXTT4=
EXTT5=
PLAYORDER=
